<svg width="16" height="16" viewBox="0 0 16 16" fill="none" xmlns="http://www.w3.org/2000/svg">
<rect x="1.5" y="1.5" width="13" height="13" rx="3.5" stroke="black"/>
<path d="M4.5 10.5H11.5C12.0523 10.5 12.5 10.9477 12.5 11.5C12.5 12.0523 12.0523 12.5 11.5 12.5H4.5C3.94772 12.5 3.5 12.0523 3.5 11.5C3.5 10.9477 3.94772 10.5 4.5 10.5Z" stroke="black"/>
<path d="M7.35186 3.5006C7.71749 3.20803 8.23718 3.20837 8.60243 3.50141L9.47316 4.2L10.538 5.03686C10.774 5.22241 10.7756 5.57954 10.5411 5.76712V5.76712C10.3709 5.90327 10.1291 5.90327 9.9589 5.76712L8.75 4.8V8.25C8.75 8.66421 8.41421 9 8 9V9V9C7.58579 9 7.25 8.66421 7.25 8.25V4.8L6.04401 5.76479C5.87212 5.9023 5.62788 5.9023 5.45599 5.76479V5.76479C5.22156 5.57725 5.22027 5.22114 5.45332 5.0319L6.47781 4.2L7.35186 3.5006Z" fill="black"/>
</svg>
